<?xml version="1.0" encoding="utf-8"?>
<!-- Generator: Adobe Illustrator 18.1.1, SVG Export Plug-In . SVG Version: 6.00 Build 0)  -->
<svg version="1.1" id="Layer_1" xmlns="http://www.w3.org/2000/svg" xmlns:xlink="http://www.w3.org/1999/xlink" x="0px" y="0px"
	 viewBox="0 0 600 600" enable-background="new 0 0 600 600" xml:space="preserve">
<circle fill="#F8CFE2" stroke="#BFBFBF" stroke-width="17" stroke-miterlimit="10" cx="300" cy="300" r="231"/>
<line fill="none" stroke="#50494B" stroke-width="44" stroke-miterlimit="10" x1="215.1" y1="441.7" x2="387.8" y2="441.7"/>
<line fill="none" stroke="#50494B" stroke-width="44" stroke-miterlimit="10" x1="188.2" y1="169.6" x2="236.6" y2="459.6"/>
<line fill="none" stroke="#50494B" stroke-width="44" stroke-miterlimit="10" x1="413.2" y1="166.6" x2="366.3" y2="459.6"/>
<path fill="none" stroke="#50494B" stroke-width="29" stroke-miterlimit="10" d="M181.5,173.2c0-6.8,53.4-12.3,119.3-12.3
	s119.3,5.5,119.3,12.3"/>
<line fill="none" stroke="#50494B" stroke-width="29" stroke-miterlimit="10" x1="240.5" y1="173.2" x2="276.3" y2="435.8"/>
<line fill="none" stroke="#50494B" stroke-width="29" stroke-miterlimit="10" x1="363.1" y1="173.2" x2="328.1" y2="435.8"/>
<line fill="none" stroke="#50494B" stroke-width="29" stroke-miterlimit="10" x1="296.7" y1="173.2" x2="305.5" y2="429.3"/>
<path fill="none" stroke="#50494B" stroke-width="15" stroke-miterlimit="10" d="M205.5,264.7c4.9-5.9,34.7-40.9,84.7-43.1
	c64.7-2.8,101.8,52,103.6,54.7"/>
<path fill="none" stroke="#50494B" stroke-width="15" stroke-miterlimit="10" d="M205.5,320.7c4.9-5.9,34.7-40.9,84.7-43.1
	c64.7-2.8,101.8,52,103.6,54.7"/>
<path fill="none" stroke="#50494B" stroke-width="15" stroke-miterlimit="10" d="M215.5,380.4c4.2-5,29.7-34.9,72.3-36.8
	c55.2-2.4,87,44.4,88.5,46.8"/>
<path fill="none" stroke="#50494B" stroke-width="29" stroke-miterlimit="10" d="M244.5,433.3c2.9-3.5,20.6-24.2,50.2-25.5
	c38.3-1.7,60.4,30.8,61.5,32.5"/>
<g>
	<g>
		<path fill="#50494B" d="M180,154.9c60.2-32.8,133.4-40.3,199.7-19.6c14.6,4.6,26.5,9.4,39.8,16.2c11.4,5.8,21.6-11.4,10.1-17.3
			c-67-34.2-146.5-40.3-217.7-15.3c-14.5,5.1-28.6,11.3-42,18.6C158.6,143.8,168.7,161.1,180,154.9L180,154.9z"/>
	</g>
</g>
<g>
	<g>
		<path fill="#50494B" d="M290,115.3c4.2-8.2,13.2-8.8,19-1.9c3.5,4.1,10.6,3.6,14.1,0c4.1-4.1,3.5-10,0-14.1
			c-13.8-16.5-40.8-13.1-50.4,6C266.9,116.7,284.1,126.8,290,115.3L290,115.3z"/>
	</g>
</g>
</svg>
